<svg height="512pt" viewBox="0 -35 512 511" width="512pt" xmlns="http://www.w3.org/2000/svg"><path d="m326 140.519531c5.519531 0 10-4.480469 10-10s-4.480469-10-10-10-10 4.480469-10 10 4.480469 10 10 10zm0 0"/><path d="m294.335938 228.058594c4.164062 3.628906 10.480468 3.195312 14.109374-.964844 11.945313-13.699219 21.449219-34.15625 25.421876-54.726562 1.046874-5.421876-2.5-10.667969-7.921876-11.714844-5.417968-1.046875-10.667968 2.5-11.714843 7.921875-3.921875 20.320312-13.347657 36.761719-20.859375 45.375-3.628906 4.160156-3.195313 10.476562.964844 14.109375zm0 0"/><path d="m502 260.519531h-172.699219c28.019531-27.378906 46.699219-78.578125 46.699219-120 0-55.261719-33.027344-80-90-80-6.445312 0-12.789062.816407-18.980469 2.433594 3.421875-16.128906 15.28125-29.328125 32.140625-34.945313 5.242188-1.746093 8.074219-7.410156 6.328125-12.648437-1.746093-5.238281-7.410156-8.070313-12.648437-6.328125-16.875 5.625-30.207032 16.699219-38.265625 30.867188-3.1875-5.753907-7.230469-11.460938-12.359375-16.585938-22.148438-22.160156-55.066406-22.792969-56.457032-22.8125-2.777343-.035156-5.4375 1.089844-7.355468 3.097656-1.914063 2.007813-2.910156 4.722656-2.746094 7.492188.078125 1.269531 2.011719 30.164062 21.542969 51.894531-40.945313 7.773437-61.199219 34.761719-61.199219 77.535156 0 41.570313 18.800781 92.742188 46.699219 120h-92.699219c-49.53125 0-90 40.074219-90 90 0 49.625 40.375 90 90 90h412c5.523438 0 10-4.476562 10-10v-40c0-5.523437-4.476562-10-10-10-16.542969 0-30-13.457031-30-30s13.457031-30 30-30c5.523438 0 10-4.476562 10-10v-40c0-5.523437-4.476562-10-10-10zm-273.929688-223.066406c7.417969 7.410156 11.859376 16.871094 14.496094 24.933594-5.421875-1.226563-10.953125-1.867188-16.566406-1.867188-.027344 0-.054688 0-.078125 0-4.601563-2.570312-8.628906-5.566406-11.992187-8.929687-9.078126-9.074219-13.707032-20.730469-16.035157-29.40625 8.984375 1.957031 21.089844 6.179687 30.175781 15.269531zm-72.070312 103.066406c0-44.648437 25.277344-60 70-60 8.796875 0 17.371094 2.082031 25.480469 6.191407.023437.011718.046875.019531.070312.027343 3.132813 1.558594 6.890625 1.332031 9.785157-.421875 7.867187-3.835937 16.160156-5.796875 24.664062-5.796875 48.410156 0 70 18.503907 70 60 0 52.398438-33.945312 120-70 120h-60c-36.054688 0-70-67.601562-70-120zm336 280h-402c-38.597656 0-70-31.402343-70-70 0-38.609375 31.246094-70 70-70h402v20h-402c-27.570312 0-50 22.429688-50 50 0 27.570313 22.429688 50 50 50h402zm-29.972656-40h-372.027344c-16.542969 0-30-13.457031-30-30s13.457031-30.007812 30-30.007812h372.027344c-6.292969 8.359375-10.027344 18.761719-10.027344 30.007812 0 11.246094 3.734375 21.636719 10.027344 30zm0 0"/><path d="m402 340.519531h-292c-5.523438 0-10 4.476563-10 10 0 5.523438 4.476562 10 10 10h292c5.523438 0 10-4.476562 10-10 0-5.523437-4.476562-10-10-10zm0 0"/></svg>