<svg id="Capa_1" enable-background="new 0 0 511.963 511.963" height="512" viewBox="0 0 511.963 511.963" width="512" xmlns="http://www.w3.org/2000/svg"><path d="m504.971 261.469-10.6-18.362c8.902-10.671 13.139-24.163 11.928-38.017-1.218-13.917-7.782-26.527-18.484-35.507l-28.485-23.901.575-1.581c4.783-13.129 4.165-27.334-1.739-39.998-5.904-12.663-16.388-22.269-29.517-27.046l-63.045-22.947v-1.8c0-28.842-23.465-52.307-52.307-52.307h-182.608c-28.843 0-52.308 23.465-52.308 52.307v227.11c-45.714 16.955-78.381 61.007-78.381 112.548 0 66.163 53.828 119.992 119.991 119.992 36.277 0 68.843-16.183 90.864-41.707 5.755 2.078 11.762 3.116 17.76 3.116 9.037 0 18.052-2.351 26.135-7.022l7.303-4.221c3.847 1.651 7.888 2.844 12.04 3.527.413.068.822.101 1.228.101 3.605 0 6.786-2.608 7.392-6.282.673-4.087-2.095-7.946-6.182-8.619-6.546-1.078-12.716-3.92-17.842-8.217l-22.897-19.21c1.755-6.452 2.985-13.118 3.638-19.95l62.176 22.63c5.617 2.042 11.359 3.047 17.025 3.134l-7.379 8.792c-2.956 3.526-6.48 6.437-10.473 8.652-3.622 2.009-4.93 6.574-2.921 10.197 1.37 2.47 3.928 3.863 6.565 3.863 1.23 0 2.479-.304 3.631-.943 5.606-3.11 10.55-7.191 14.689-12.129l20.111-23.964c9.137-4.561 16.963-11.774 22.194-21.047l120.788-69.736c24.962-14.422 33.546-46.476 19.135-71.456zm-26.798-80.394c7.633 6.404 12.314 15.397 13.183 25.322.868 9.925-2.184 19.591-8.597 27.221l-97.895 116.674 69.006-189.609zm-263.75 256.755-26.184-15.117c3.265-7.218 5.434-15.034 6.254-23.245h30.22c-.97 13.67-4.567 26.625-10.29 38.362zm-101.936 28.639v30.219c-13.669-.97-26.624-4.567-38.36-10.29l15.117-26.184c7.218 3.266 15.033 5.435 23.243 6.255zm15 .001c8.211-.82 16.026-2.988 23.244-6.252l15.117 26.184c-11.737 5.723-24.692 9.319-38.361 10.288zm-7.496-14.624c-33.017 0-59.878-26.861-59.878-59.878s26.861-59.878 59.878-59.878 59.878 26.861 59.878 59.878-26.861 59.878-59.878 59.878zm-74.501-67.379h-30.219c.97-13.669 4.566-26.622 10.288-38.358l26.183 15.117c-3.264 7.217-5.432 15.031-6.252 23.241zm0 15c.82 8.21 2.988 16.024 6.252 23.241l-26.183 15.117c-5.722-11.736-9.318-24.69-10.287-38.359h30.218zm149.003-15c-.821-8.211-2.989-16.027-6.254-23.245l26.184-15.117c5.724 11.737 9.32 24.692 10.29 38.362zm-13.774-36.224c-4.722-6.54-10.469-12.286-17.009-17.007l15.116-26.182c11.038 7.496 20.579 17.036 28.075 28.073zm-29.988-24.525c-7.218-3.264-15.033-5.432-23.244-6.252v-30.219c13.67.969 26.624 4.565 38.361 10.287zm-38.244-6.251c-8.21.821-16.024 2.99-23.242 6.254l-15.117-26.183c11.736-5.723 24.69-9.32 38.359-10.29zm-51.337-12.41 15.116 26.183c-6.539 4.721-12.284 10.467-17.005 17.006l-26.183-15.116c7.495-11.036 17.036-20.577 28.072-28.073zm-28.073 145.748 26.182-15.117c4.721 6.539 10.467 12.286 17.006 17.007l-15.117 26.183c-11.035-7.496-20.575-17.036-28.071-28.073zm145.751 28.077-15.117-26.182c6.54-4.721 12.287-10.468 17.009-17.008l26.183 15.117c-7.496 11.037-17.037 20.578-28.075 28.073zm68.942-25.827-.526.304c-8.195 4.737-17.733 6.118-26.76 4.1 3.886-5.943 7.266-12.245 10.064-18.852zm58.961-41.047-66.833-24.325c-.195-5.513-.76-10.933-1.678-16.235h75.076c28.842 0 52.307-23.465 52.307-52.307v-198.46c0-4.142-3.357-7.5-7.5-7.5s-7.5 3.358-7.5 7.5v198.46c0 20.571-16.735 37.307-37.307 37.307h-78.681c-15.177-48.877-60.822-84.471-114.625-84.471-9.142 0-18.047 1.032-26.609 2.979v-222.646c0-20.571 16.736-37.307 37.308-37.307h182.607c20.571 0 37.307 16.736 37.307 37.307v38.366c0 4.142 3.357 7.5 7.5 7.5s7.5-3.358 7.5-7.5v-20.603l57.916 21.08c9.364 3.407 16.841 10.258 21.052 19.289s4.651 19.162 1.239 28.527l-91.253 250.737c-7.037 19.325-28.493 29.33-47.826 22.302zm171.604-92.074-93.912 54.219 99.689-118.813 7.867 13.627c10.28 17.818 4.158 40.683-13.644 50.967z"/><path d="m293.301 181.472-65.128-94.651c-1.399-2.034-3.71-3.249-6.179-3.249s-4.779 1.215-6.179 3.249l-65.127 94.651c-1.762 2.561-1.762 5.942 0 8.503l65.127 94.651c1.399 2.034 3.71 3.249 6.179 3.249s4.779-1.215 6.179-3.249l65.128-94.651c1.762-2.56 1.762-5.942 0-8.503zm-71.307 85.672-56.023-81.42 56.023-81.42 56.024 81.42z"/><path d="m422.391 122.719-12.716-4.628c-.001 0-.003-.001-.004-.002s-.003-.001-.004-.001l-12.715-4.628c-3.896-1.417-8.196.591-9.613 4.483s.591 8.196 4.482 9.613l5.672 2.064-6.694 18.391c-1.417 3.893.59 8.196 4.482 9.613.847.308 1.713.454 2.564.454 3.063 0 5.94-1.891 7.049-4.937l6.694-18.392 5.672 2.064c.848.308 1.713.454 2.564.454 3.063 0 5.94-1.892 7.049-4.937 1.417-3.89-.591-8.194-4.482-9.611z"/><path d="m152.79 44.347c0-4.142-3.357-7.5-7.5-7.5h-27.072c-4.143 0-7.5 3.358-7.5 7.5s3.357 7.5 7.5 7.5h6.036v19.572c0 4.142 3.357 7.5 7.5 7.5s7.5-3.358 7.5-7.5v-19.572h6.036c4.143 0 7.5-3.358 7.5-7.5z"/><path d="m325.771 319.601h-6.036v-19.572c0-4.142-3.357-7.5-7.5-7.5s-7.5 3.358-7.5 7.5v19.572h-6.035c-4.143 0-7.5 3.358-7.5 7.5s3.357 7.5 7.5 7.5h27.071c4.143 0 7.5-3.358 7.5-7.5s-3.358-7.5-7.5-7.5z"/><path d="m92.132 359.052c-4.143 0-7.5 3.358-7.5 7.5v50.832c0 4.142 3.357 7.5 7.5 7.5s7.5-3.358 7.5-7.5v-50.832c0-4.142-3.358-7.5-7.5-7.5z"/><path d="m132.211 356.609c-13.192 0-23.141 15.201-23.141 35.359s9.948 35.359 23.141 35.359c13.191 0 23.14-15.201 23.14-35.359s-9.949-35.359-23.14-35.359zm0 55.718c-2.795 0-8.141-7.929-8.141-20.359s5.346-20.359 8.141-20.359 8.14 7.929 8.14 20.359-5.345 20.359-8.14 20.359z"/></svg>