<?xml version="1.0" encoding="UTF-8" standalone="no"?>
<svg
   xmlns:dc="http://purl.org/dc/elements/1.1/"
   xmlns:cc="http://creativecommons.org/ns#"
   xmlns:rdf="http://www.w3.org/1999/02/22-rdf-syntax-ns#"
   xmlns:svg="http://www.w3.org/2000/svg"
   xmlns="http://www.w3.org/2000/svg"
   xmlns:sodipodi="http://sodipodi.sourceforge.net/DTD/sodipodi-0.dtd"
   xmlns:inkscape="http://www.inkscape.org/namespaces/inkscape"
   id="Capa_1"
   enable-background="new 0 0 512 512"
   height="512"
   viewBox="0 0 512 512"
   width="512"
   version="1.1"
   sodipodi:docname="css-3.svg"
   inkscape:version="1.0.2-2 (e86c870879, 2021-01-15)">
  <metadata
     id="metadata20">
    <rdf:RDF>
      <cc:Work
         rdf:about="">
        <dc:format>image/svg+xml</dc:format>
        <dc:type
           rdf:resource="http://purl.org/dc/dcmitype/StillImage" />
      </cc:Work>
    </rdf:RDF>
  </metadata>
  <defs
     id="defs18" />
  <sodipodi:namedview
     pagecolor="#ffffff"
     bordercolor="#666666"
     borderopacity="1"
     objecttolerance="10"
     gridtolerance="10"
     guidetolerance="10"
     inkscape:pageopacity="0"
     inkscape:pageshadow="2"
     inkscape:window-width="1920"
     inkscape:window-height="1017"
     id="namedview16"
     showgrid="false"
     inkscape:zoom="1.6601562"
     inkscape:cx="256"
     inkscape:cy="183.71765"
     inkscape:window-x="-8"
     inkscape:window-y="-8"
     inkscape:window-maximized="1"
     inkscape:current-layer="Capa_1" />
  <g
     id="g13">
    <path
       id="polygon2989_00000091712160093483359120000013545222466388029605_"
       d="m437.367 100.62-33.046 370.199-148.543 41.181-148.134-41.123-33.011-370.257z"
       fill="#004ce8" />
    <path
       id="polygon2991_00000130636505511401349330000011479272249651210121_"
       d="m376.03 447.246 28.24-316.352h-148.27v349.629z"
       fill="#0065f4" />
    <g
       fill="#ebebeb"
       id="g7">
      <path
         id="polygon2993_00000027586116533142052040000014804943466300760462_"
         d="m150.31 268.217 4.07 45.41h101.62l19.533-22.705-19.533-22.705z" />
      <path
         id="polygon2995_00000098936504455534668280000009583779879621411251_"
         d="m256 176.305h-.157-113.711l4.128 45.411h109.74l19.533-22.706z" />
      <path
         id="polygon2997_00000011734588395863960860000002272664363377641402_"
         d="m256 433.399 19.533-24.081-19.533-23.165-.199.053-50.574-13.656-3.233-36.217h-24.575-21.01l6.362 71.301 93.02 25.823z" />
    </g>
    <path
       id="path2999_00000183935336956994173500000009856227378309738643_"
       d="m160 0h55v23h-32v23h32v23h-55z" />
    <path
       id="path3001_00000096055226761582317920000005110122629658984122_"
       d="m226 0h55v20h-32v4h32v46h-55v-21h32v-4h-32z" />
    <path
       id="path3003_00000136402835624896882680000006132478931596835508_"
       d="m292 0h55v20h-32v4h32v46h-55v-21h32v-4h-32z" />
    <path
       id="polygon3005_00000173137955367200700520000015002477665718237887_"
       d="m311.761 313.627-5.271 58.894-50.647 13.67v47.244l93.094-25.801.683-7.672 10.671-119.551 1.108-12.194 8.198-91.912h-113.754v45.411h63.988l-4.132 46.501h-59.856v45.41z"
       fill="#fff" />
  </g>
  <path
     style="fill:#ffffff;stroke-width:0.602353"
     d="M 160.52706,34.334118 V 0 h 27.10588 27.10588 v 11.444706 11.444706 h -15.96235 -15.96235 v 11.745882 11.745882 h 15.96235 15.96235 v 11.14353 11.143529 h -27.10588 -27.10588 z"
     id="path22" />
  <path
     style="fill:#ffffff;stroke-width:0.602353"
     d="m 226.18353,59.632941 v -10.24 h 15.96235 15.96236 V 46.983529 44.574118 H 242.14588 226.18353 V 22.287059 0 h 27.40706 27.40706 v 9.9388235 9.9388235 h -16.26353 -16.26353 v 2.108235 2.108236 h 16.26353 16.26353 v 22.889411 22.889412 h -27.40706 -27.40706 z"
     id="path24" />
  <path
     style="fill:#ffffff;stroke-width:0.602353"
     d="m 292.44235,59.632941 v -10.24 h 15.96236 15.96235 V 46.983529 44.574118 H 308.40471 292.44235 V 22.287059 0 h 27.10589 27.10588 v 9.9388235 9.9388235 h -15.96236 -15.96235 v 2.108235 2.108236 h 15.96235 15.96236 v 22.889411 22.889412 h -27.10588 -27.10589 z"
     id="path26" />
</svg>
