<svg id="Capa_1" enable-background="new 0 0 512 512" height="512" viewBox="0 0 512 512" width="512" xmlns="http://www.w3.org/2000/svg"><g><path d="m484.446 40.365h-306.272c-4.151 0-7.515 3.364-7.515 7.515s3.364 7.515 7.515 7.515h306.272c6.906 0 12.524 5.618 12.524 12.524v319.056c0 6.906-5.618 12.524-12.524 12.524h-32.728c14.704-12.115 24.095-30.457 24.095-50.952 0-3.257-.247-6.456-.704-9.588v-223.523c0-4.151-3.364-7.515-7.515-7.515-12.765 0-23.151-10.385-23.151-23.15 0-4.151-3.364-7.515-7.515-7.515h-361.857c-4.151 0-7.515 3.364-7.515 7.515 0 12.765-10.386 23.15-23.151 23.15-4.151 0-7.515 3.364-7.515 7.515v224.021c0 4.151 3.364 7.515 7.515 7.515 12.765 0 23.151 10.384 23.151 23.15 0 4.151 3.364 7.515 7.515 7.515h167.334c4.151 0 7.515-3.364 7.515-7.515s-3.364-7.515-7.515-7.515h-160.562c-3.013-15.036-14.885-26.909-29.923-29.922v-210.477c15.037-3.013 26.91-14.885 29.923-29.922h348.313c3.013 15.036 14.886 26.909 29.923 29.922v183.637c-12.116-14.241-30.149-23.299-50.267-23.299-36.393 0-66.001 29.608-66.001 66.001 0 4.825.535 9.526 1.523 14.06h-72.87c-4.151 0-7.515 3.364-7.515 7.515s3.364 7.515 7.515 7.515h78.122c4.175 8.465 10.103 15.917 17.32 21.863h-340.352c-6.906 0-12.524-5.618-12.524-12.524v-319.057c0-6.906 5.618-12.524 12.524-12.524h120.562c4.151 0 7.515-3.364 7.515-7.515s-3.364-7.515-7.515-7.515h-120.562c-15.193 0-27.554 12.36-27.554 27.554v319.056c0 15.193 12.361 27.554 27.554 27.554h342.27v49.608c-.11 5.014 5.548 9.151 10.739 6.788l29.25-13.894 29.25 13.894c4.152 2.253 10.857-1.069 10.739-6.788v-49.608h34.646c15.193 0 27.554-12.36 27.554-27.554v-319.056c-.002-15.193-12.363-27.554-27.556-27.554zm-125.605 308.182c0-28.106 22.866-50.972 50.972-50.972s50.972 22.866 50.972 50.972-22.866 50.972-50.972 50.972c-28.106-.001-50.972-22.867-50.972-50.972zm54.195 93.376c-2.039-.969-4.409-.969-6.448 0l-21.735 10.324v-42.614c7.705 3.16 16.129 4.915 24.959 4.915s17.254-1.756 24.959-4.915v42.614z"/><path d="m319.395 159.011c4.151 0 7.515-3.364 7.515-7.515s-3.364-7.515-7.515-7.515h-126.79c-4.151 0-7.515 3.364-7.515 7.515s3.364 7.515 7.515 7.515z"/><path d="m89.341 202.13c0 4.151 3.364 7.515 7.515 7.515h318.288c4.151 0 7.515-3.364 7.515-7.515s-3.364-7.515-7.515-7.515h-318.288c-4.151 0-7.515 3.364-7.515 7.515z"/><path d="m96.856 260.278h318.288c4.151 0 7.515-3.364 7.515-7.515s-3.364-7.515-7.515-7.515h-318.288c-4.151 0-7.515 3.364-7.515 7.515s3.364 7.515 7.515 7.515z"/><path d="m96.856 310.912h145.549c4.151 0 7.515-3.364 7.515-7.515s-3.364-7.515-7.515-7.515h-145.549c-4.151 0-7.515 3.364-7.515 7.515s3.364 7.515 7.515 7.515z"/><path d="m409.812 385.263c20.246 0 36.716-16.471 36.716-36.716s-16.471-36.716-36.716-36.716-36.716 16.471-36.716 36.716 16.47 36.716 36.716 36.716zm0-58.403c11.958 0 21.687 9.729 21.687 21.687s-9.729 21.687-21.687 21.687-21.687-9.729-21.687-21.687 9.729-21.687 21.687-21.687z"/></g></svg>