<svg id="Capa_1" enable-background="new 0 0 511.995 511.995" height="512" viewBox="0 0 511.995 511.995" width="512" xmlns="http://www.w3.org/2000/svg"><path d="m494.328 168.969-132.87-63.9c-3.732-1.796-8.214-.225-10.009 3.508s-.225 8.214 3.508 10.009l132.871 63.9c5.739 2.759 9.166 8.207 9.167 14.573.001 6.371-3.426 11.825-9.168 14.589l-129.778 62.419-71.034-60.448c6.17-4.339 9.823-10.082 9.823-16.555 0-14.207-17.557-24.919-40.839-24.919s-40.839 10.713-40.839 24.919 17.557 24.919 40.839 24.919c5.597 0 10.858-.625 15.629-1.763l71.634 60.958-60.124 28.918c-17.247 8.296-37.031 8.296-54.278 0l-204.69-98.446c-5.744-2.765-9.171-8.219-9.17-14.59.001-6.367 3.428-11.814 9.168-14.574l204.69-98.45c17.247-8.296 37.031-8.295 54.278 0l40.7 19.58c3.733 1.797 8.214.226 10.01-3.507 1.795-3.733.225-8.214-3.507-10.01l-40.7-19.581c-21.379-10.283-45.903-10.283-67.282 0l-204.688 98.45c-10.895 5.237-17.665 16-17.668 28.088-.003 12.093 6.766 22.864 17.667 28.11l73.561 35.381v80.421c0 15.439 8.183 30.358 23.664 43.143 1.398 1.155 3.09 1.717 4.771 1.717 2.161 0 4.304-.929 5.787-2.724 2.638-3.194 2.187-7.921-1.007-10.559-8.31-6.863-18.216-17.912-18.216-31.577v-73.206l116.129 55.854c10.691 5.143 22.164 7.713 33.641 7.713 11.475 0 22.953-2.572 33.641-7.713l59.769-28.747v75.375c-10.599 3.743-16.17 15.568-19.098 29.074-22.565 5.934-48.085 9.06-74.132 9.06-38.751 0-75.636-6.841-103.859-19.264-3.792-1.669-8.218.051-9.886 3.843-1.669 3.791.052 8.217 3.843 9.886 30.085 13.243 69.116 20.536 109.902 20.536 24.984 0 49.556-2.765 71.782-8.023-.896 9.994-.897 19.574-.897 26.335 0 4.142 3.358 7.5 7.5 7.5h44.684c4.142 0 7.5-3.358 7.5-7.5 0-11.494-.002-31.138-4.407-47.108 25.077-14.738 38.799-33.616 38.799-53.615v-80.597l73.192-35.203c10.899-5.246 17.668-16.016 17.665-28.109-.004-12.091-6.774-22.853-17.668-28.09zm-264.17 28.097c0-3.497 9.81-9.919 25.839-9.919s25.839 6.422 25.839 9.919-9.81 9.919-25.839 9.919-25.839-6.422-25.839-9.919zm111.976 237.123c.807-41.129 8.332-50.13 14.721-50.176.018 0 .035.003.053.003.016 0 .032-.002.048-.002 4.323.034 7.333 4.324 9.41 9.731.016.04.029.08.045.12 1.172 3.08 2.046 6.511 2.688 9.723 2.023 10.122 2.5 21.601 2.612 30.602h-29.577zm64.004-93.223c0 14.04-10.459 27.94-29.633 39.63-3.04-4.853-6.983-8.542-12.097-10.35v-82.591l41.73-20.071z"/></svg>