<?xml version="1.0" encoding="UTF-8" standalone="no"?>
<svg
   xmlns:dc="http://purl.org/dc/elements/1.1/"
   xmlns:cc="http://creativecommons.org/ns#"
   xmlns:rdf="http://www.w3.org/1999/02/22-rdf-syntax-ns#"
   xmlns:svg="http://www.w3.org/2000/svg"
   xmlns="http://www.w3.org/2000/svg"
   xmlns:sodipodi="http://sodipodi.sourceforge.net/DTD/sodipodi-0.dtd"
   xmlns:inkscape="http://www.inkscape.org/namespaces/inkscape"
   id="Capa_1"
   enable-background="new 0 0 512 512"
   height="512"
   viewBox="0 0 512 512"
   width="512"
   version="1.1"
   sodipodi:docname="html-5.svg"
   inkscape:version="1.0.2-2 (e86c870879, 2021-01-15)">
  <metadata
     id="metadata19">
    <rdf:RDF>
      <cc:Work
         rdf:about="">
        <dc:format>image/svg+xml</dc:format>
        <dc:type
           rdf:resource="http://purl.org/dc/dcmitype/StillImage" />
      </cc:Work>
    </rdf:RDF>
  </metadata>
  <defs
     id="defs17" />
  <sodipodi:namedview
     pagecolor="#ffffff"
     bordercolor="#666666"
     borderopacity="1"
     objecttolerance="10"
     gridtolerance="10"
     guidetolerance="10"
     inkscape:pageopacity="0"
     inkscape:pageshadow="2"
     inkscape:window-width="1920"
     inkscape:window-height="1017"
     id="namedview15"
     showgrid="false"
     inkscape:zoom="1.6601562"
     inkscape:cx="256"
     inkscape:cy="87.341176"
     inkscape:window-x="-8"
     inkscape:window-y="-8"
     inkscape:window-maximized="1"
     inkscape:current-layer="Capa_1" />
  <g
     id="g12">
    <path
       d="m108.4 0h23v22.8h21.2v-22.8h23v69h-23v-23h-21v23h-23.2zm97.6 23h-20.3v-23h63.7v23h-20.4v46h-23zm53.5-23h24.1l14.8 24.3 14.8-24.3h24.1v69h-23v-34.2l-16.1 24.8-16.1-24.8v34.2h-22.6zm89.2 0h23v46.2h32.6v22.8h-55.6z"
       id="path2" />
    <path
       d="m107.6 471-33-370.4h362.8l-33 370.2-148.7 41.2"
       fill="#ff4c1e"
       id="path4" />
    <path
       d="m256 480.5v-349.5h148.3l-28.3 316z"
       fill="#ff651e"
       id="path6" />
    <path
       d="m142 176.3h114l16.951 22.7-16.951 22.7h-64.2l4.2 46.5h60l16.951 23.549-16.951 21.751h-101.6zm14.4 160h45.6l3.2 36.3 50.8 13.6 19.127 22.66-19.127 24.74-93.2-26z"
       fill="#ebebeb"
       id="path8" />
    <path
       d="m369.6 176.3h-113.8v45.4h109.6zm-8.3 91.9h-105.5v45.4h56l-5.3 59-50.7 13.6v47.2l93-25.8z"
       fill="#fff"
       id="path10" />
  </g>
  <path
     style="fill:#ffffff;stroke-width:0.602353"
     d="M 108.72471,34.334118 V 0 h 11.14353 11.14352 v 11.444706 11.444706 h 10.84236 10.84235 V 11.444706 0 h 11.44471 11.4447 v 34.334118 34.334117 h -11.4447 -11.44471 V 57.223529 45.778824 h -10.84235 -10.84236 v 11.444705 11.444706 h -11.14352 -11.14353 z"
     id="path21" />
  <path
     style="fill:#ffffff;stroke-width:0.602353"
     d="M 206.30588,45.778824 V 22.889412 h -10.24 -10.24 V 11.444706 0 h 31.62353 31.62353 v 11.444706 11.444706 h -10.24 -10.24 v 22.889412 22.889411 h -11.14353 -11.14353 z"
     id="path23" />
  <path
     style="fill:#ffffff;stroke-width:0.602353"
     d="M 259.91529,34.334118 V 0 h 11.64955 11.64955 l 7.47516,12.346711 c 4.11134,6.790691 7.61069,12.336649 7.77633,12.324352 0.16565,-0.0123 3.64099,-5.568317 7.72299,-12.346711 L 313.61068,0 h 11.70289 11.7029 V 34.334118 68.668235 H 325.87294 314.72941 V 51.465627 c 0,-9.461434 -0.21103,-17.07218 -0.46897,-16.912769 -0.25793,0.159411 -3.97951,5.714898 -8.27018,12.345527 l -7.80121,12.055689 -3.37123,-5.232331 c -1.85418,-2.877782 -5.51895,-8.485037 -8.14394,-12.460567 l -4.7727,-7.228235 -0.15983,17.317647 -0.15982,17.317647 h -10.83312 -10.83312 z"
     id="path25" />
  <path
     style="fill:#ffffff;stroke-width:0.602353"
     d="M 349.06353,34.334118 V 0 h 11.14353 11.14353 v 23.190588 23.190588 h 16.26353 16.26353 v 11.14353 11.143529 h -27.40706 -27.40706 z"
     id="path27" />
</svg>
