<?xml version="1.0" encoding="UTF-8" standalone="no"?>
<svg
   xmlns:dc="http://purl.org/dc/elements/1.1/"
   xmlns:cc="http://creativecommons.org/ns#"
   xmlns:rdf="http://www.w3.org/1999/02/22-rdf-syntax-ns#"
   xmlns:svg="http://www.w3.org/2000/svg"
   xmlns="http://www.w3.org/2000/svg"
   xmlns:sodipodi="http://sodipodi.sourceforge.net/DTD/sodipodi-0.dtd"
   xmlns:inkscape="http://www.inkscape.org/namespaces/inkscape"
   id="selenium_logo"
   viewBox="0 0 32.512431 34"
   data-name="Selenium Logo"
   version="1.1"
   sodipodi:docname="selenium-sm.svg"
   width="32.512432"
   height="34"
   inkscape:version="1.0.2-2 (e86c870879, 2021-01-15)">
  <metadata
     id="metadata29">
    <rdf:RDF>
      <cc:Work
         rdf:about="">
        <dc:format>image/svg+xml</dc:format>
        <dc:type
           rdf:resource="http://purl.org/dc/dcmitype/StillImage" />
        <dc:title>Selenium</dc:title>
      </cc:Work>
    </rdf:RDF>
  </metadata>
  <defs
     id="defs27" />
  <sodipodi:namedview
     pagecolor="#ffffff"
     bordercolor="#666666"
     borderopacity="1"
     objecttolerance="10"
     gridtolerance="10"
     guidetolerance="10"
     inkscape:pageopacity="0"
     inkscape:pageshadow="2"
     inkscape:window-width="1920"
     inkscape:window-height="1017"
     id="namedview25"
     showgrid="false"
     inkscape:zoom="21.145221"
     inkscape:cx="27.753786"
     inkscape:cy="18.614581"
     inkscape:window-x="-8"
     inkscape:window-y="-8"
     inkscape:window-maximized="1"
     inkscape:current-layer="selenium_logo" />
  <title
     id="title2">Selenium</title>
  <path
     d="m 46.2,26.37 a 18.85,18.85 0 0 1 -2.57,-0.2 25,25 0 0 1 -2.74,-0.53 v -1.39 a 25.31,25.31 0 0 0 2.71,0.53 18,18 0 0 0 2.5,0.2 5.51,5.51 0 0 0 3.29,-0.84 2.79,2.79 0 0 0 1.14,-2.39 A 2.85,2.85 0 0 0 49.29,19.26 6,6 0 0 0 48,18.55 Q 47.22,18.26 46.33,18 A 15.93,15.93 0 0 1 44,17.13 5.92,5.92 0 0 1 42.42,16.08 3.6,3.6 0 0 1 41.52,14.74 5,5 0 0 1 41.23,13 a 4.46,4.46 0 0 1 0.41,-1.93 4.31,4.31 0 0 1 1.17,-1.5 5.26,5.26 0 0 1 1.82,-1 8,8 0 0 1 2.37,-0.29 20.51,20.51 0 0 1 4.41,0.57 v 1.42 a 20,20 0 0 0 -2.23,-0.44 15.2,15.2 0 0 0 -2,-0.15 4.86,4.86 0 0 0 -3.08,0.9 2.9,2.9 0 0 0 -1.22,2.42 3.25,3.25 0 0 0 0.21,1.21 2.61,2.61 0 0 0 0.7,1 4.83,4.83 0 0 0 1.27,0.79 14.31,14.31 0 0 0 2,0.68 q 1.11,0.33 2.06,0.71 a 6.21,6.21 0 0 1 1.65,0.94 4.09,4.09 0 0 1 1.1,1.38 4.54,4.54 0 0 1 0.4,2 4.15,4.15 0 0 1 -1.56,3.48 7.16,7.16 0 0 1 -4.51,1.18 z"
     fill="#01a71c"
     id="path4" />
  <path
     d="M 60.62,26.32 A 5.46,5.46 0 0 1 56.34,24.7 6.9,6.9 0 0 1 54.88,20 a 7.8,7.8 0 0 1 1.43,-5 5,5 0 0 1 4.14,-1.75 4.24,4.24 0 0 1 3.47,1.43 6.48,6.48 0 0 1 1.18,4.12 q 0,0.54 0,0.92 a 3.22,3.22 0 0 1 -0.09,0.64 h -8.57 a 5.39,5.39 0 0 0 1.17,3.5 4.18,4.18 0 0 0 3.19,1.14 10.52,10.52 0 0 0 1.82,-0.17 11.77,11.77 0 0 0 1.93,-0.52 l 0.12,1.27 a 10.68,10.68 0 0 1 -2,0.55 11.47,11.47 0 0 1 -2.05,0.19 z M 60.4,14.43 q -3.68,0 -3.94,4.74 h 7.15 A 6.49,6.49 0 0 0 62.83,15.54 2.76,2.76 0 0 0 60.4,14.43 Z"
     fill="#01a71c"
     id="path6" />
  <path
     d="m 68.64,7 h 1.58 v 19.11 h -1.58 z"
     fill="#01a71c"
     id="path8" />
  <path
     d="M 79.56,26.32 A 5.46,5.46 0 0 1 75.28,24.7 6.9,6.9 0 0 1 73.83,20 7.8,7.8 0 0 1 75.26,15 5,5 0 0 1 79.4,13.25 4.24,4.24 0 0 1 82.87,14.68 6.48,6.48 0 0 1 84,18.8 q 0,0.54 0,0.92 a 3.22,3.22 0 0 1 -0.09,0.64 h -8.53 a 5.4,5.4 0 0 0 1.17,3.5 4.18,4.18 0 0 0 3.2,1.14 10.52,10.52 0 0 0 1.82,-0.17 11.8,11.8 0 0 0 1.93,-0.52 l 0.12,1.27 a 10.68,10.68 0 0 1 -2,0.55 11.47,11.47 0 0 1 -2.06,0.19 z M 79.35,14.43 q -3.68,0 -3.94,4.74 h 7.15 a 6.49,6.49 0 0 0 -0.78,-3.63 2.76,2.76 0 0 0 -2.43,-1.11 z"
     fill="#01a71c"
     id="path10" />
  <path
     d="m 87.51,13.37 h 1.32 l 0.12,1.49 h 0.12 q 0.94,-0.45 1.72,-0.78 0.78,-0.33 1.43,-0.54 a 8.42,8.42 0 0 1 1.2,-0.31 6.54,6.54 0 0 1 1.1,-0.09 3.3,3.3 0 0 1 2.48,0.86 3.63,3.63 0 0 1 0.83,2.63 v 9.51 h -1.59 v -9 a 3,3 0 0 0 -0.55,-2 2.18,2.18 0 0 0 -1.69,-0.6 7.25,7.25 0 0 0 -2.24,0.41 20.1,20.1 0 0 0 -2.67,1.12 v 10 h -1.58 z"
     fill="#01a71c"
     id="path12" />
  <path
     d="m 102.75,10.52 a 0.93,0.93 0 0 1 -1.06,-1 1.06,1.06 0 0 1 2.12,0 0.93,0.93 0 0 1 -1.06,1 z m -0.8,2.85 h 1.58 v 12.74 h -1.58 z"
     fill="#01a71c"
     id="path14" />
  <path
     d="m 110.81,26.34 q -3.14,0 -3.14,-3.47 v -9.5 h 1.58 v 9 a 3.16,3.16 0 0 0 0.48,2 1.92,1.92 0 0 0 1.59,0.6 6.83,6.83 0 0 0 2.48,-0.48 q 1.25,-0.48 2.59,-1.14 V 13.37 H 118 v 12.74 h -1.32 l -0.12,-1.58 h -0.09 l -1.73,0.81 q -0.74,0.34 -1.38,0.57 a 7.9,7.9 0 0 1 -1.23,0.33 7.34,7.34 0 0 1 -1.32,0.1 z"
     fill="#01a71c"
     id="path16" />
  <path
     d="m 122.18,13.37 h 1.3 l 0.14,1.49 h 0.09 a 19.53,19.53 0 0 1 2.58,-1.31 5.51,5.51 0 0 1 2,-0.41 2.83,2.83 0 0 1 3,1.77 h 0.12 q 0.8,-0.5 1.45,-0.83 a 12.61,12.61 0 0 1 1.2,-0.54 6.17,6.17 0 0 1 1,-0.31 5.18,5.18 0 0 1 1,-0.09 3.3,3.3 0 0 1 2.45,0.84 3.63,3.63 0 0 1 0.83,2.63 v 9.51 h -1.56 v -9 a 2.9,2.9 0 0 0 -0.55,-2 2.21,2.21 0 0 0 -1.69,-0.59 5.14,5.14 0 0 0 -1.78,0.38 A 14.45,14.45 0 0 0 131.6,16 V 26.1 H 130 v -9 a 2.9,2.9 0 0 0 -0.55,-2 2.21,2.21 0 0 0 -1.69,-0.59 5.24,5.24 0 0 0 -1.86,0.4 14,14 0 0 0 -2.14,1.09 v 10.11 h -1.58 z"
     fill="#01a71c"
     id="path18" />
  <path
     d="m 21.45,21.51 a 2.49,2.49 0 0 0 -2.55,2.21 0.08,0.08 0 0 0 0.08,0.1 h 4.95 a 0.08,0.08 0 0 0 0.08,-0.09 2.41,2.41 0 0 0 -2.56,-2.22 z"
     fill="#01a71c"
     id="path20" />
  <path
     d="M 32.06,4.91 21.56,16.7 a 0.32,0.32 0 0 1 -0.47,0 l -5.36,-5.53 a 0.32,0.32 0 0 1 0,-0.4 L 17.5,8.5 a 0.32,0.32 0 0 1 0.52,0 l 3,3.32 a 0.32,0.32 0 0 0 0.49,0 L 29.87,0.36 A 0.23,0.23 0 0 0 29.69,0 H 0.25 A 0.25,0.25 0 0 0 0,0.25 v 33.5 A 0.25,0.25 0 0 0 0.25,34 h 32 A 0.25,0.25 0 0 0 32.5,33.75 V 5.06 A 0.23243279,0.23243279 0 0 0 32.06,4.91 Z m -23,25.36 a 8.08,8.08 0 0 1 -5.74,-2 0.31,0.31 0 0 1 0,-0.41 L 4.57,26.11 A 0.31,0.31 0 0 1 5,26 6.15,6.15 0 0 0 9.2,27.64 c 1.64,0 2.44,-0.76 2.44,-1.56 0,-2.48 -8.08,-0.78 -8.08,-6.06 0,-2.33 2,-4.27 5.32,-4.27 a 7.88,7.88 0 0 1 5.25,1.76 0.31,0.31 0 0 1 0,0.43 L 12.9,19.65 A 0.31,0.31 0 0 1 12.45,19.7 6.08,6.08 0 0 0 8.61,18.38 c -1.28,0 -2,0.57 -2,1.41 0,2.23 8.06,0.74 8.06,6 0,2.54 -1.83,4.48 -5.62,4.48 z M 26.68,25.4 A 0.27,0.27 0 0 1 26.4,25.68 H 19 a 0.09,0.09 0 0 0 -0.08,0.1 2.81,2.81 0 0 0 3,2.32 4.62,4.62 0 0 0 2.56,-0.84 0.27,0.27 0 0 1 0.4,0.06 l 0.9,1.31 a 0.28,0.28 0 0 1 -0.06,0.37 6.67,6.67 0 0 1 -4.1,1.28 5.28,5.28 0 0 1 -5.57,-5.48 5.31,5.31 0 0 1 5.4,-5.46 c 3.11,0 5.22,2.33 5.22,5.74 z"
     fill="#01a71c"
     id="path22" />
</svg>
