<?xml version="1.0" encoding="UTF-8" standalone="no"?>
<svg
   xmlns:dc="http://purl.org/dc/elements/1.1/"
   xmlns:cc="http://creativecommons.org/ns#"
   xmlns:rdf="http://www.w3.org/1999/02/22-rdf-syntax-ns#"
   xmlns:svg="http://www.w3.org/2000/svg"
   xmlns="http://www.w3.org/2000/svg"
   xmlns:sodipodi="http://sodipodi.sourceforge.net/DTD/sodipodi-0.dtd"
   xmlns:inkscape="http://www.inkscape.org/namespaces/inkscape"
   height="511pt"
   viewBox="0 -39 511.99881 511"
   width="511pt"
   version="1.1"
   id="svg18"
   sodipodi:docname="cinema.svg"
   inkscape:version="1.0.2-2 (e86c870879, 2021-01-15)">
  <metadata
     id="metadata24">
    <rdf:RDF>
      <cc:Work
         rdf:about="">
        <dc:format>image/svg+xml</dc:format>
        <dc:type
           rdf:resource="http://purl.org/dc/dcmitype/StillImage" />
      </cc:Work>
    </rdf:RDF>
  </metadata>
  <defs
     id="defs22" />
  <sodipodi:namedview
     pagecolor="#ffffff"
     bordercolor="#666666"
     borderopacity="1"
     objecttolerance="10"
     gridtolerance="10"
     guidetolerance="10"
     inkscape:pageopacity="0"
     inkscape:pageshadow="2"
     inkscape:window-width="1920"
     inkscape:window-height="1017"
     id="namedview20"
     showgrid="false"
     inkscape:snap-center="false"
     inkscape:zoom="0.62377691"
     inkscape:cx="297.42209"
     inkscape:cy="450.15868"
     inkscape:window-x="-8"
     inkscape:window-y="-8"
     inkscape:window-maximized="1"
     inkscape:current-layer="svg18" />
  <path
     d="m224.589844 287.371094c-2.375-3.394532-7.050782-4.21875-10.445313-1.839844l-104.304687 73.035156-15.902344-22.707031c8.914062-19.582031 6.914062-42.1875-5.585938-60.039063-12.5-17.847656-33.0625-27.460937-54.503906-25.78125l-15.902344-22.707031 210.871094-147.65625 15.90625 22.714844c-.839844 1.855469-1.589844 3.757813-2.238281 5.6875-1.320313 3.925781.792969 8.179687 4.71875 9.5s8.179687-.792969 9.5-4.71875c.871094-2.589844 1.976563-5.113281 3.292969-7.496094 1.378906-2.507812 1.214844-5.578125-.429688-7.921875l-22.765625-32.511718c-1.140625-1.628907-2.878906-2.738282-4.839843-3.082032-1.960938-.347656-3.976563.101563-5.605469 1.242188l-223.15625 156.257812c-1.628907 1.140625-2.742188 2.878906-3.085938 4.839844-.34375 1.957031.101563 3.976562 1.242188 5.605469l22.765625 32.511719c1.640625 2.34375 4.46875 3.546874 7.296875 3.109374 17.433593-2.714843 34.535156 4.574219 44.648437 19.011719 10.109375 14.4375 11.101563 33.003907 2.59375 48.457031-1.378906 2.503907-1.214844 5.574219.425782 7.917969l22.765624 32.515625c1.460938 2.082032 3.785157 3.195313 6.152344 3.195313 1.484375 0 2.984375-.4375 4.292969-1.355469l110.453125-77.339844c3.394531-2.375 4.21875-7.050781 1.839844-10.445312zm0 0"
     id="path2" />
  <path
     d="m497.949219 180.523438c1.96875-14.191407-4.441407-28.019532-15.984375-35.785157 1.050781-2.507812 1.820312-5.136719 2.300781-7.875 1.71875-9.734375-.460937-19.558593-6.132813-27.65625-5.667968-8.101562-14.152343-13.503906-23.886718-15.222656-3.976563-.703125-7.992188-.746094-11.902344-.164063.421875-17.964843-12.355469-34.082031-30.582031-37.296874-10.800781-1.90625-21.910157 1.167968-30.214844 8.105468-2.300781-.90625-4.699219-1.585937-7.175781-2.023437-15.1875-2.675781-30.109375 4.375-37.90625 16.960937-2.839844-1.292968-5.847656-2.234375-8.941406-2.78125-9.734376-1.714844-19.558594.460938-27.65625 6.132813-8.101563 5.671875-13.507813 14.15625-15.21875 23.878906-.042969.226563-.078126.449219-.113282.675781-16.742187.488282-31.5 12.371094-35.105468 29.210938-3.847657.851562-7.527344 2.460937-10.851563 4.789062-6.632813 4.644532-11.0625 11.597656-12.46875 19.574219-2.820313 16 7.519531 31.332031 23.214844 34.851563l-4.539063 35.40625-101.3125 70.933593c-1.914062 1.347657-4.242187 1.863281-6.550781 1.457031-2.304687-.40625-4.316406-1.6875-5.660156-3.605468l-51.035157-72.886719c-2.773437-3.964844-1.808593-9.441406 2.15625-12.21875l112.800782-78.980469c1.917968-1.34375 4.242187-1.863281 6.546875-1.453125 2.304687.402344 4.3125 1.683594 5.660156 3.609375l2.109375 3.007813c2.378906 3.394531 7.054688 4.214843 10.445312 1.835937 3.394532-2.378906 4.214844-7.054687 1.835938-10.445312l-2.105469-3.003906c-3.640625-5.203126-9.085937-8.675782-15.339843-9.777344-6.253907-1.101563-12.5625.296875-17.757813 3.941406l-112.796875 78.976562c-10.738281 7.515626-13.363281 22.367188-5.84375 33.109376l51.039062 72.886718c7.554688 10.804688 22.386719 13.347656 33.105469 5.835938l90.125-63.105469-16.074219 125.390625c-1.664062 13.375 7.433594 25.6875 20.707032 28.027344l161.832031 28.539062c1.488281.261719 2.964844.386719 4.425781.386719 11.582032 0 21.945313-7.980469 24.625-19.671875l40.074219-177.90625c1.316406.171875 2.632813.253906 3.9375.253906 6.167969 0 12.175781-1.882812 17.332031-5.492187 6.632813-4.644531 11.0625-11.597657 12.46875-19.574219 2.191406-12.425781-3.554687-24.449219-13.585937-30.851562zm-208.566407-57.734376.859376.164063c2.304687.449219 4.683593-.207031 6.433593-1.773437 1.746094-1.566407 2.660157-3.859376 2.46875-6.199219-1.164062-14.222657 11.554688-25.929688 25.769531-23.421875 3.707032.65625 7.195313 2.25 10.089844 4.609375 1.933594 1.574219 4.523438 2.089843 6.914063 1.359375 2.390625-.722656 4.261719-2.585938 4.992187-4.972656 3.246094-10.574219 13.929688-17.101563 24.851563-15.179688 2.648437.472656 5.148437 1.394531 7.417969 2.746094 3.121093 1.855468 7.125 1.203125 9.503906-1.542969 5.121094-5.917969 12.78125-8.640625 20.476562-7.28125 11.953125 2.109375 19.964844 13.546875 17.855469 25.503906-.335937 1.898438-.917969 3.753907-1.730469 5.507813-1.394531 3.015625-.640625 6.589844 1.855469 8.785156s6.136719 2.484375 8.949219.710938c4.632812-2.917969 10.152344-4 15.550781-3.046876 5.789063 1.019532 10.835937 4.234376 14.207031 9.050782 3.375 4.820312 4.667969 10.660156 3.648438 16.449218-.589844 3.347657-1.894532 6.421876-3.882813 9.140626-1.382812 1.894531-1.800781 4.324218-1.128906 6.574218.675781 2.246094 2.359375 4.046875 4.554687 4.871094 8.738282 3.273438 14.324219 11.644531 14.257813 20.757812l-218.421875-38.511718c3.523438-9.914063 13.796875-16.160156 24.507812-14.300782zm-48.367187 255.902344 18.191406-141.902344c.03125-.195312.054688-.394531.074219-.59375l4.828125-37.65625 28.152344 4.964844-7.535157 51.105469c-.601562 4.097656 2.230469 7.910156 6.328126 8.511719 4.097656.609375 7.910156-2.226563 8.511718-6.324219l7.476563-50.6875 8.53125 1.503906 17.617187 3.109375-29.765625 179.414063c-.570312 3.445312-.921875 6.53125-1.050781 9.265625l-20.203125-3.5625c-.875-.757813-2.4375-4.433594-1.625-10.035156l14.414063-97.761719c.605468-4.097657-2.226563-7.910157-6.324219-8.511719-4.09375-.605469-7.910157 2.226562-8.515625 6.324219l-14.414063 97.78125c-.472656 3.242187-.5 6.371093-.136719 9.277343l-16.125-2.84375c-5.402343-.953124-9.105468-5.964843-8.429687-11.378906zm137.535156 34.144532-20.203125-3.5625c.8125-2.617188 1.539063-5.636719 2.183594-9.070313l8.386719-44.914063c.761719-4.070312-1.921875-7.988281-5.992188-8.75-4.078125-.761718-7.992187 1.925782-8.75 5.996094l-8.386719 44.90625c-.773437 4.109375-1.691406 7.191406-2.4375 9.1875l-25.980468-4.582031c-.019532-2.128906.171875-5.335937.851562-9.460937l29.742188-179.257813 31.1875 5.5-19.230469 102.949219c-.761719 4.070312 1.921875 7.988281 5.992187 8.75 4.074219.757812 7.992188-1.921875 8.75-5.996094l19.257813-103.101562 26.148437 4.613281-36.558593 177.902343c-1.152344 5.558594-3.878907 8.476563-4.960938 8.890626zm44.546875-2.066407c-1.226562 5.347657-6.425781 8.792969-11.816406 7.835938l-16.132812-2.84375c1.339843-2.609375 2.386718-5.566407 3.054687-8.78125l36.644531-178.335938 28.15625 4.964844zm73.667969-202c-.710937 4.03125-2.949219 7.546875-6.304687 9.894531-3.351563 2.347657-7.421876 3.25-11.449219 2.539063l-5.660157-1-72.941406-12.859375-11.195312-1.972656s0 0-.003906-.003906c-11.519532-2.03125-116.785157-20.59375-135.898438-23.960938-4.03125-.710938-7.542969-2.949219-9.890625-6.304688-2.351563-3.351562-3.25-7.417968-2.539063-11.449218.707032-4.03125 2.949219-7.542969 6.300782-9.890625 2.605468-1.828125 5.640625-2.777344 8.757812-2.777344.894532 0 1.792969.078125 2.691406.238281l225.699219 39.796875c.773438.136719 1.523438.328125 2.242188.570313.152343.0625.308593.117187.464843.167968.015626.003907.03125.007813.042969.015626 6.761719 2.546874 10.980469 9.632812 9.683594 16.996093zm0 0"
     id="path6" />
  <path
     d="m395.640625 151.175781c4.089844.71875 7.96875-2.003906 8.6875-6.085937.476563-2.710938 1.984375-5.078125 4.242187-6.660156 2.257813-1.582032 4.996094-2.1875 7.710938-1.707032 2.714844.476563 5.082031 1.984375 6.660156 4.242188 1.582032 2.257812 2.1875 4.996094 1.710938 7.710937-.71875 4.078125 2.003906 7.96875 6.082031 8.6875.441406.078125.878906.113281 1.3125.113281 3.570313 0 6.734375-2.558593 7.378906-6.199218 1.171875-6.660156-.316406-13.378906-4.195312-18.917969-3.878907-5.539063-9.683594-9.238281-16.34375-10.414063-6.660157-1.171874-13.378907.316407-18.917969 4.195313s-9.238281 9.683594-10.414062 16.34375c-.71875 4.082031 2.003906 7.96875 6.085937 8.691406zm0 0"
     id="path8" />
  <path
     d="m340.511719 128.789062c4.144531 0 7.5-3.359374 7.5-7.5 0-2.609374 2.121093-4.730468 4.730469-4.730468 2.609374 0 4.734374 2.121094 4.734374 4.730468 0 4.140626 3.355469 7.5 7.5 7.5 4.140626 0 7.5-3.359374 7.5-7.5 0-10.878906-8.851562-19.730468-19.734374-19.730468-10.878907 0-19.730469 8.851562-19.730469 19.730468 0 4.140626 3.355469 7.5 7.5 7.5zm0 0"
     id="path10" />
  <path
     d="m249.417969 41.523438c.921875.371093 1.871093.546874 2.808593.546874 2.964844 0 5.773438-1.773437 6.953126-4.691406l10.734374-26.566406c1.554688-3.839844-.304687-8.214844-4.144531-9.765625-3.84375-1.550781-8.210937.304687-9.761719 4.144531l-10.734374 26.566406c-1.550782 3.839844.304687 8.214844 4.144531 9.765626zm0 0"
     id="path12" />
  <path
     d="m200.621094 37.890625c1.214844 2.855469 3.988281 4.570313 6.90625 4.570313.976562 0 1.972656-.191407 2.929687-.597657 3.8125-1.621093 5.589844-6.023437 3.972657-9.835937l-11.199219-26.375c-1.617188-3.8125-6.019531-5.589844-9.832031-3.972656-3.8125 1.617187-5.59375 6.019531-3.972657 9.835937zm0 0"
     id="path14" />
  <path
     d="m146.8125 63.0625 26.570312 10.734375c.917969.375 1.871094.550781 2.804688.550781 2.96875 0 5.777344-1.773437 6.957031-4.695312 1.550781-3.839844-.304687-8.210938-4.144531-9.761719l-26.566406-10.734375c-3.84375-1.550781-8.210938.300781-9.765625 4.144531-1.550781 3.839844.304687 8.210938 4.144531 9.761719zm0 0"
     id="path16" />
</svg>
