<?xml version="1.0" encoding="UTF-8" standalone="no"?>
<svg
   xmlns:dc="http://purl.org/dc/elements/1.1/"
   xmlns:cc="http://creativecommons.org/ns#"
   xmlns:rdf="http://www.w3.org/1999/02/22-rdf-syntax-ns#"
   xmlns:svg="http://www.w3.org/2000/svg"
   xmlns="http://www.w3.org/2000/svg"
   xmlns:sodipodi="http://sodipodi.sourceforge.net/DTD/sodipodi-0.dtd"
   xmlns:inkscape="http://www.inkscape.org/namespaces/inkscape"
   id="Capa_1"
   enable-background="new 0 0 512 512"
   height="512"
   viewBox="0 0 512 512"
   width="512"
   version="1.1"
   sodipodi:docname="tower-defense.svg"
   inkscape:version="1.0.2-2 (e86c870879, 2021-01-15)">
  <metadata
     id="metadata17">
    <rdf:RDF>
      <cc:Work
         rdf:about="">
        <dc:format>image/svg+xml</dc:format>
        <dc:type
           rdf:resource="http://purl.org/dc/dcmitype/StillImage" />
        <dc:title></dc:title>
      </cc:Work>
    </rdf:RDF>
  </metadata>
  <defs
     id="defs15" />
  <sodipodi:namedview
     pagecolor="#ffffff"
     bordercolor="#666666"
     borderopacity="1"
     objecttolerance="10"
     gridtolerance="10"
     guidetolerance="10"
     inkscape:pageopacity="0"
     inkscape:pageshadow="2"
     inkscape:window-width="1920"
     inkscape:window-height="1017"
     id="namedview13"
     showgrid="false"
     inkscape:zoom="1.6601562"
     inkscape:cx="256"
     inkscape:cy="280.09412"
     inkscape:window-x="-8"
     inkscape:window-y="-8"
     inkscape:window-maximized="1"
     inkscape:current-layer="Capa_1" />
  <g
     id="g10"
     transform="matrix(0.67849811,0,0,0.5810733,84,229.71401)">
    <path
       d="m 469.699,194.709 h -28.611 c -4.143,0 -7.5,3.357 -7.5,7.5 0,4.143 3.357,7.5 7.5,7.5 h 28.611 c 15.054,0 27.301,12.247 27.301,27.302 V 443.5 c 0,15.054 -12.247,27.301 -27.301,27.301 H 140.848 c -4.142,0 -7.5,3.357 -7.5,7.5 0,4.143 3.358,7.5 7.5,7.5 H 469.699 C 493.024,485.801 512,466.825 512,443.5 V 237.011 c 0,-23.325 -18.976,-42.302 -42.301,-42.302 z"
       id="path2" />
    <path
       d="m 56.38,340.258 c 0,36.922 30.042,66.96 66.97,66.96 36.922,0 66.96,-30.038 66.96,-66.96 0,-25.943 -15.284,-49.675 -38.53,-60.622 v -44.312 c 13.411,-5.313 25.006,-14.248 33.542,-25.617 H 406.09 c 4.143,0 7.5,-3.357 7.5,-7.5 0,-4.143 -3.357,-7.5 -7.5,-7.5 H 263.5 v -19.12 c 0,-7.974 6.486,-14.46 14.46,-14.46 h 76.13 c 22.134,0 40.141,-18.007 40.141,-40.14 0,-22.128 -18.007,-40.13 -40.141,-40.13 h -76.13 c -7.974,0 -14.46,-6.486 -14.46,-14.46 v -32.7 c 0,-4.143 -3.357,-7.5 -7.5,-7.5 -4.142,0 -7.5,3.357 -7.5,7.5 v 32.7 c 0,16.244 13.216,29.46 29.46,29.46 h 76.13 c 13.862,0 25.141,11.273 25.141,25.13 0,13.862 -11.278,25.14 -25.141,25.14 h -76.13 c -16.244,0 -29.46,13.216 -29.46,29.46 v 19.12 h -54.375 c 4.281,-9.608 6.682,-20.233 6.682,-31.413 0,-42.711 -34.748,-77.458 -77.459,-77.458 -42.711,0 -77.458,34.747 -77.458,77.458 0,11.18 2.4,21.805 6.681,31.413 H 42.3 c -23.324,0 -42.3,18.976 -42.3,42.3 v 206.49 c 0,23.324 18.976,42.3 42.3,42.3 h 63.55 c 4.142,0 7.5,-3.357 7.5,-7.5 0,-4.143 -3.358,-7.5 -7.5,-7.5 H 42.3 c -15.053,0 -27.3,-12.247 -27.3,-27.3 v -206.49 c 0,-15.053 12.247,-27.3 27.3,-27.3 h 19.074 c 8.535,11.367 20.127,20.301 33.536,25.614 v 44.316 c -23.246,10.961 -38.53,34.692 -38.53,60.621 z m 118.93,0 c 0,28.65 -23.309,51.96 -51.96,51.96 -28.656,0 -51.97,-23.31 -51.97,-51.96 0,-17.639 9.123,-33.964 23.53,-43.456 v 43.456 c 0,15.677 12.758,28.431 28.44,28.431 15.676,0 28.43,-12.754 28.43,-28.431 v -43.462 c 14.407,9.485 23.53,25.812 23.53,43.462 z M 60.889,163.295 c 0,-34.439 28.019,-62.458 62.458,-62.458 34.439,0 62.459,28.019 62.459,62.458 0,34.44 -28.019,62.459 -62.459,62.459 -34.44,0 -62.458,-28.018 -62.458,-62.459 z m 62.459,77.459 c 4.583,0 9.066,-0.423 13.432,-1.19 v 100.694 c 0,7.405 -6.024,13.431 -13.43,13.431 -7.411,0 -13.44,-6.025 -13.44,-13.431 V 239.563 c 4.368,0.768 8.853,1.191 13.438,1.191 z"
       id="path4" />
    <path
       d="m 298.526,353.678 c -18.051,18.052 -18.051,47.425 0,65.478 9.026,9.025 20.883,13.539 32.739,13.539 11.856,0 23.713,-4.514 32.739,-13.539 18.052,-18.053 18.052,-47.425 0,-65.478 -18.052,-18.051 -47.425,-18.051 -65.478,0 z m 54.871,54.87 c -12.204,12.204 -32.062,12.203 -44.264,10e-4 -12.203,-12.204 -12.203,-32.061 0,-44.264 6.102,-6.103 14.116,-9.153 22.132,-9.153 8.016,0 16.03,3.051 22.132,9.153 12.205,12.204 12.205,32.06 0,44.263 z"
       id="path6" />
    <path
       d="m 423.588,340.373 c 11.856,0 23.713,-4.514 32.739,-13.539 18.052,-18.053 18.052,-47.426 0,-65.479 -18.051,-18.051 -47.425,-18.051 -65.478,0 -18.052,18.053 -18.052,47.426 0,65.479 9.027,9.025 20.883,13.539 32.739,13.539 z m 0,-77.563 c 27.689,0 41.876,33.674 22.132,53.416 -12.204,12.205 -32.061,12.205 -44.263,0 -19.733,-19.731 -5.567,-53.416 22.131,-53.416 z"
       id="path8" />
  </g>
  <g
     id="g6"
     transform="matrix(0.67849811,0,0,0.5810733,84,-22.27636)">
    <path
       d="m 394.681,385.721 c 14.715,0 26.687,-11.972 26.687,-26.687 0,-14.716 -11.972,-26.688 -26.687,-26.688 -14.715,0 -26.687,11.972 -26.687,26.688 0,14.715 11.972,26.687 26.687,26.687 z m 0,-38.374 c 6.444,0 11.687,5.243 11.687,11.688 0,6.445 -5.243,11.687 -11.687,11.687 -6.444,0 -11.687,-5.242 -11.687,-11.687 0,-6.445 5.243,-11.688 11.687,-11.688 z"
       id="path2-5" />
    <path
       d="m 494.5,401.98 h -60.961 c 7.165,-6.489 12.691,-14.746 15.914,-24.068 13.12,-5.023 24.186,-14.493 31.432,-27.031 16.321,-28.26 8.201,-63.723 -17.965,-80.006 V 258.81 c 0,-7.808 6.348,-14.16 14.15,-14.16 h 16.32 c 4.142,0 7.5,-3.357 7.5,-7.5 0,-4.143 -3.358,-7.5 -7.5,-7.5 h -16.32 c -16.073,0 -29.15,13.081 -29.15,29.16 v 5.23 L 337.605,221.58 c -9.551,-3.677 -20.201,0.085 -25.321,8.949 l -19.919,34.499 c -5.121,8.867 -3.055,19.972 4.911,26.404 13.067,10.559 47.425,38.335 47.425,38.335 -5.053,8.596 -7.965,18.595 -7.965,29.266 0,17.013 7.372,32.335 19.087,42.945 H 215.873 V 285.824 c 0,-4.143 -3.358,-7.5 -7.5,-7.5 -4.142,0 -7.5,3.357 -7.5,7.5 V 401.98 h -28.157 v -45.796 c 0,-24.593 -20.007,-44.6 -44.6,-44.6 -24.593,0 -44.6,20.007 -44.6,44.6 V 401.98 H 55.36 V 231.838 h 145.514 v 18.986 c 0,4.143 3.358,7.5 7.5,7.5 4.142,0 7.5,-3.357 7.5,-7.5 v -18.986 h 8.028 c 7.006,0 12.706,-5.7 12.706,-12.707 v -63.192 c 0,-7.006 -5.7,-12.706 -12.706,-12.706 h -28.545 c -7.006,0 -12.707,5.7 -12.707,12.706 v 17.589 h -27.554 v -17.589 c 0,-7.006 -5.7,-12.706 -12.706,-12.706 h -6.771 V 113.12 l 50.239,-24.044 c 4.648,-2.226 7.536,-6.81 7.536,-11.963 0,-5.153 -2.888,-9.736 -7.537,-11.961 l -54.5,-26.081 c -2.324,-1.111 -5.056,-0.954 -7.235,0.42 -2.18,1.373 -3.502,3.77 -3.502,6.346 v 97.396 h -6.775 c -7.006,0 -12.707,5.7 -12.707,12.706 v 17.589 H 73.583 v -17.589 c 0,-7.006 -5.7,-12.706 -12.706,-12.706 H 32.332 c -7.006,0 -12.706,5.7 -12.706,12.706 v 63.192 c 0,7.007 5.7,12.707 12.706,12.707 H 40.36 V 401.98 H 17.5 c -9.649,0 -17.5,7.851 -17.5,17.5 v 36.684 c 0,9.649 7.851,17.5 17.5,17.5 h 359.681 c 4.142,0 7.5,-3.357 7.5,-7.5 0,-4.143 -3.358,-7.5 -7.5,-7.5 H 17.5 c -1.378,0 -2.5,-1.121 -2.5,-2.5 V 419.48 c 0,-1.379 1.122,-2.5 2.5,-2.5 h 477 c 1.378,0 2.5,1.121 2.5,2.5 v 36.684 c 0,1.379 -1.122,2.5 -2.5,2.5 h -82.319 c -4.142,0 -7.5,3.357 -7.5,7.5 0,4.143 3.358,7.5 7.5,7.5 H 494.5 c 9.649,0 17.5,-7.851 17.5,-17.5 V 419.48 c 0,-9.65 -7.851,-17.5 -17.5,-17.5 z M 306.702,279.764 c -2.183,-1.763 -2.75,-4.805 -1.347,-7.234 l 19.919,-34.499 c 1.403,-2.431 4.324,-3.462 6.942,-2.451 L 447.89,280.1 c 2.11,0.793 4.12,1.739 5.979,2.813 20.238,11.689 26.531,38.813 14.027,60.463 -3.849,6.66 -9.097,12.174 -15.284,16.193 0.002,-0.179 0.014,-0.355 0.014,-0.535 0,-31.951 -25.994,-57.945 -57.945,-57.945 -15.89,0 -30.303,6.433 -40.781,16.826 0,0 -34.128,-27.59 -47.198,-38.151 z m 45.034,79.27 c 0,-23.68 19.265,-42.945 42.945,-42.945 23.68,0 42.945,19.266 42.945,42.945 0,23.679 -19.265,42.944 -42.945,42.944 -23.68,10e-4 -42.945,-19.264 -42.945,-42.944 z M 135.619,96.49 V 57.74 l 40.485,19.375 z M 34.625,158.233 h 23.958 v 18.89 c 0,6.289 5.116,11.405 11.405,11.405 h 34.745 c 6.289,0 11.405,-5.116 11.405,-11.405 v -18.89 h 23.958 v 18.89 c 0,6.289 5.116,11.405 11.405,11.405 h 34.745 c 6.289,0 11.405,-5.116 11.405,-11.405 v -18.89 h 23.958 v 58.605 H 34.625 Z m 63.892,197.951 c 0,-16.321 13.278,-29.6 29.6,-29.6 16.322,0 29.6,13.278 29.6,29.6 v 45.796 h -59.2 z"
       id="path4-1" />
  </g>
</svg>
