<svg id="Layer_1" enable-background="new 0 0 512 512" height="512" viewBox="0 0 512 512" width="512" xmlns="http://www.w3.org/2000/svg"><g><path d="m248 48c-110.3 0-200 89.7-200 200s89.7 200 200 200 200-89.7 200-200-89.7-200-200-200zm0 368c-92.6 0-168-75.4-168-168s75.4-168 168-168 168 75.4 168 168-75.4 168-168 168z"/><path d="m296 324h-28v-104c0-8.8-7.2-16-16-16h-32c-8.8 0-16 7.2-16 16s7.2 16 16 16h16v88h-28c-8.8 0-16 7.2-16 16s7.2 16 16 16h88c8.8 0 16-7.2 16-16s-7.2-16-16-16z"/><circle cx="248" cy="156" r="26"/></g></svg>