<?xml version="1.0" encoding="UTF-8" standalone="no"?>
<svg
   xmlns:dc="http://purl.org/dc/elements/1.1/"
   xmlns:cc="http://creativecommons.org/ns#"
   xmlns:rdf="http://www.w3.org/1999/02/22-rdf-syntax-ns#"
   xmlns:svg="http://www.w3.org/2000/svg"
   xmlns="http://www.w3.org/2000/svg"
   xmlns:sodipodi="http://sodipodi.sourceforge.net/DTD/sodipodi-0.dtd"
   xmlns:inkscape="http://www.inkscape.org/namespaces/inkscape"
   height="32"
   id="icon"
   viewBox="0 0 32 32"
   width="32"
   version="1.1"
   sodipodi:docname="view-external.svg"
   inkscape:version="1.0.2-2 (e86c870879, 2021-01-15)">
  <metadata
     id="metadata16">
    <rdf:RDF>
      <cc:Work
         rdf:about="">
        <dc:format>image/svg+xml</dc:format>
        <dc:type
           rdf:resource="http://purl.org/dc/dcmitype/StillImage" />
        <dc:title></dc:title>
      </cc:Work>
    </rdf:RDF>
  </metadata>
  <sodipodi:namedview
     pagecolor="#ffffff"
     bordercolor="#666666"
     borderopacity="1"
     objecttolerance="10"
     gridtolerance="10"
     guidetolerance="10"
     inkscape:pageopacity="0"
     inkscape:pageshadow="2"
     inkscape:window-width="1920"
     inkscape:window-height="1017"
     id="namedview14"
     showgrid="false"
     inkscape:zoom="26.5625"
     inkscape:cx="9.9712349"
     inkscape:cy="17.767282"
     inkscape:window-x="-8"
     inkscape:window-y="-8"
     inkscape:window-maximized="1"
     inkscape:current-layer="icon" />
  <defs
     id="defs4">
    <style
       id="style2">
      .cls-1 {
        fill: none;
      }
    </style>
  </defs>
  <path
     d="m 17.765203,28.826039 0.95763,0.558618 c 0.284852,0.166177 0.637098,0.166177 0.92195,0 l 10.977775,-6.403702 c 0.281043,-0.163954 0.453852,-0.464846 0.45384,-0.790217 V 9.3833333 C 31.07641,9.0579624 30.903601,8.7570708 30.622558,8.5931166 L 19.644783,2.1894141 c -0.284852,-0.1661766 -0.637098,-0.1661766 -0.92195,0 L 7.745057,8.5931166 C 7.4640141,8.757071 7.2912052,9.0579625 7.2912175,9.3833333 v 1.1578427 c 0.00752,1.254902 1.8221058,1.267452 1.8296293,-0.01882 V 9.9086203 L 19.183808,4.0387119 29.246769,9.9086203 V 21.665452 L 19.183808,27.53536 18.739777,27.276349 c -1.153093,-0.650495 -2.00501,0.939009 -0.974574,1.54969 z"
     id="path10"
     style="stroke-width:0.914815"
     sodipodi:nodetypes="cccccccccccccccccccc" />
  <rect
     class="cls-1"
     data-name="&lt;Transparent Rectangle&gt;"
     height="32"
     id="_Transparent_Rectangle_"
     width="32" />
  <g
     id="g6"
     transform="matrix(0.8,0,0,0.8,-0.44020861,6.7821123)">
    <path
       d="m 16,7.55762 c -5.7793,0 -11.09814,2.63477 -14.59229,7.22754 -0.54492,0.71533 -0.54492,1.71436 -4.9e-4,2.42871 3.49464,4.59375 8.81348,7.22851 14.59278,7.22851 5.7793,0 11.09814,-2.63477 14.59229,-7.22754 0.54492,-0.71533 0.54492,-1.71338 4.9e-4,-2.42871 C 27.09814,10.19238 21.7793,7.55762 16,7.55762 Z m 13.00098,8.44531 C 25.8877,20.09521 21.14893,22.44238 16,22.44238 10.85107,22.44238 6.1123,20.09521 2.99902,15.99707 6.1123,11.90479 10.85107,9.55762 16,9.55762 c 5.14893,0 9.8877,2.34717 13.00098,6.43945 0,4.9e-4 0,0.0054 0,0.0059 z"
       id="path2" />
    <path
       d="m 16,10.146 c -3.22803,0 -5.854,2.62598 -5.854,5.854 0,3.22802 2.62598,5.854 5.854,5.854 3.22802,0 5.854,-2.62598 5.854,-5.854 0,-3.22802 -2.62597,-5.854 -5.854,-5.854 z m 0,9.708 c -2.125,0 -3.854,-1.729 -3.854,-3.854 0,-2.125 1.729,-3.854 3.854,-3.854 2.125,0 3.854,1.729 3.854,3.854 0,2.125 -1.729,3.854 -3.854,3.854 z"
       id="path4" />
  </g>
</svg>
