<svg id="eiUghkqPc0B1" xmlns="http://www.w3.org/2000/svg" xmlns:xlink="http://www.w3.org/1999/xlink" viewBox="0 0 300 300" shape-rendering="geometricPrecision" text-rendering="geometricPrecision"><rect width="92" height="92" rx="17" ry="17" transform="translate(12 196)" fill="#70d470" stroke-width="0"/><rect width="92" height="92" rx="17" ry="17" transform="translate(104 196)" fill="#70d470" stroke-width="0"/><rect width="92" height="92" rx="17" ry="17" transform="translate(196 196)" fill="#70d470" stroke-width="0"/><rect width="92" height="92" rx="17" ry="17" transform="translate(196 104)" fill="#70d470" stroke-width="0"/><rect width="92" height="92" rx="17" ry="17" transform="translate(104 104)" fill="#ffff70" stroke-width="0"/><rect width="92" height="92" rx="17" ry="17" transform="translate(12 104)" fill="#70d470" stroke-width="0"/><rect width="92" height="92" rx="17" ry="17" transform="translate(12 104)" fill="#fff" stroke-width="0"/><rect width="92" height="92" rx="17" ry="17" transform="translate(12 12)" fill="#fff" stroke-width="0"/><rect width="92" height="92" rx="17" ry="17" transform="translate(104 12)" fill="#fff" stroke-width="0"/><rect width="92" height="92" rx="17" ry="17" transform="translate(196 12)" fill="#fff" stroke-width="0"/><rect width="276" height="276" rx="30" ry="30" transform="translate(12 12)" fill="none" stroke="#000" stroke-width="24" stroke-linejoin="round"/><line x1="0" y1="-142" x2="0" y2="142" transform="translate(104 150)" fill="none" stroke="#000" stroke-width="24"/><line x1="0" y1="-142" x2="0" y2="142" transform="translate(196 150)" fill="none" stroke="#000" stroke-width="24"/><line x1="-142" y1="0" x2="142" y2="0" transform="translate(150 104)" fill="none" stroke="#000" stroke-width="24"/><line x1="-142" y1="0" x2="142" y2="0" transform="translate(150 196)" fill="none" stroke="#000" stroke-width="24"/></svg>